<svg width="107" height="31" viewBox="0 0 107 31" fill="none" xmlns="http://www.w3.org/2000/svg">
<path d="M12.24 1.91999H17.4L29.72 30.24H22.68L20.24 24.24H9.23998L6.87998 30.24H-2.19746e-05L12.24 1.91999ZM14.64 10.16L11.2 18.96H18.12L14.64 10.16ZM31.8884 -1.14441e-05H37.8884V30.24H31.8884V-1.14441e-05ZM42.279 10.8H48.279V30.24H42.279V10.8ZM41.799 4.67999C41.799 3.71999 42.1324 2.90666 42.799 2.23999C43.4924 1.54666 44.319 1.19999 45.279 1.19999C46.239 1.19999 47.0524 1.54666 47.719 2.23999C48.4124 2.90666 48.759 3.71999 48.759 4.67999C48.759 5.63999 48.4124 6.46666 47.719 7.15999C47.0524 7.82666 46.239 8.15999 45.279 8.15999C44.319 8.15999 43.4924 7.82666 42.799 7.15999C42.1324 6.46666 41.799 5.63999 41.799 4.67999ZM50.5497 10.8H57.0297L61.9497 24H62.0297L66.5897 10.8H72.6297L64.9497 30.24H58.5897L50.5497 10.8ZM74.8962 10.8H80.8962V30.24H74.8962V10.8ZM74.4162 4.67999C74.4162 3.71999 74.7496 2.90666 75.4162 2.23999C76.1096 1.54666 76.9362 1.19999 77.8962 1.19999C78.8562 1.19999 79.6696 1.54666 80.3362 2.23999C81.0296 2.90666 81.3762 3.71999 81.3762 4.67999C81.3762 5.63999 81.0296 6.46666 80.3362 7.15999C79.6696 7.82666 78.8562 8.15999 77.8962 8.15999C76.9362 8.15999 76.1096 7.82666 75.4162 7.15999C74.7496 6.46666 74.4162 5.63999 74.4162 4.67999ZM84.4869 20.52C84.4869 18.9733 84.7669 17.5733 85.3269 16.32C85.8869 15.0667 86.6469 14 87.6069 13.12C88.5935 12.2133 89.7402 11.52 91.0469 11.04C92.3802 10.56 93.7935 10.32 95.2869 10.32C96.7802 10.32 98.1802 10.56 99.4869 11.04C100.82 11.52 101.967 12.2133 102.927 13.12C103.914 14 104.687 15.0667 105.247 16.32C105.807 17.5733 106.087 18.9733 106.087 20.52C106.087 22.0667 105.807 23.4667 105.247 24.72C104.687 25.9733 103.914 27.0533 102.927 27.96C101.967 28.84 100.82 29.52 99.4869 30C98.1802 30.48 96.7802 30.72 95.2869 30.72C93.7935 30.72 92.3802 30.48 91.0469 30C89.7402 29.52 88.5935 28.84 87.6069 27.96C86.6469 27.0533 85.8869 25.9733 85.3269 24.72C84.7669 23.4667 84.4869 22.0667 84.4869 20.52ZM90.4869 20.52C90.4869 21.9867 90.9002 23.1733 91.7269 24.08C92.5802 24.9867 93.7669 25.44 95.2869 25.44C96.8069 25.44 97.9802 24.9867 98.8069 24.08C99.6602 23.1733 100.087 21.9867 100.087 20.52C100.087 19.0533 99.6602 17.8667 98.8069 16.96C97.9802 16.0533 96.8069 15.6 95.2869 15.6C93.7669 15.6 92.5802 16.0533 91.7269 16.96C90.9002 17.8667 90.4869 19.0533 90.4869 20.52Z" fill="white"/>
</svg>
